<svg width="48" height="54" viewBox="0 0 48 54" fill="none" xmlns="http://www.w3.org/2000/svg">
<path d="M42.625 5.625H40V0.375H34.625V5.625H13.375V0.375H8V5.625H5.375C3.875 5.625 2.58333 6.16667 1.5 7.25C0.5 8.25 0 9.5 0 11V48.375C0 49.7917 0.5 51.0417 1.5 52.125C2.58333 53.125 3.875 53.625 5.375 53.625H42.625C44.125 53.625 45.375 53.125 46.375 52.125C47.4583 51.0417 48 49.7917 48 48.375V11C48 9.5 47.4583 8.25 46.375 7.25C45.375 6.16667 44.125 5.625 42.625 5.625ZM42.625 48.375H5.375V21.625H42.625V48.375ZM16 32.375H10.625V27H16V32.375ZM26.625 32.375H21.375V27H26.625V32.375ZM37.375 32.375H32V27H37.375V32.375ZM16 43H10.625V37.625H16V43ZM26.625 43H21.375V37.625H26.625V43ZM37.375 43H32V37.625H37.375V43Z" fill="#0B3B60"/>
</svg>
