<svg width="44" height="54" viewBox="0 0 44 54" fill="none" xmlns="http://www.w3.org/2000/svg">
<path d="M18 29.625H11.375V21.625H18V15H26V21.625H32.625V29.625H26V36.375H18V29.625ZM22 0.375L0.625 8.375V24.625C0.625 27.9583 1.16667 31.2083 2.25 34.375C3.33333 37.5417 4.83333 40.4583 6.75 43.125C8.66667 45.7083 10.9167 47.9167 13.5 49.75C16.0833 51.5833 18.9167 52.875 22 53.625C25.0833 52.875 27.9167 51.5833 30.5 49.75C33.0833 47.9167 35.3333 45.7083 37.25 43.125C39.1667 40.4583 40.6667 37.5417 41.75 34.375C42.8333 31.2083 43.375 27.9583 43.375 24.625V8.375L22 0.375Z" fill="#0B3B60"/>
</svg>
