<svg width="60" height="54" viewBox="0 0 60 54" fill="none" xmlns="http://www.w3.org/2000/svg">
<path d="M59.375 24.625V30C59.375 30.6667 59.25 31.3333 59 32L50.875 50.75C50.0417 52.9167 48.4167 54 46 54H22C20.5833 54 19.3333 53.4583 18.25 52.375C17.1667 51.2917 16.625 50.0417 16.625 48.625V22C16.625 20.5833 17.1667 19.3333 18.25 18.25L35.75 0.625L38.625 3.5C39.375 4.25 39.75 5.16667 39.75 6.25V7.125L37.125 19.375H54C55.4167 19.375 56.6667 19.9167 57.75 21C58.8333 22 59.375 23.2083 59.375 24.625ZM0.625 54V22H11.375V54H0.625Z" fill="#0B3B60"/>
</svg>
